<?xml version="1.0" encoding="UTF-8" standalone="no"?>
<!-- Created with Inkscape (http://www.inkscape.org/) -->

<svg
   width="210mm"
   height="297mm"
   viewBox="0 0 210 297"
   version="1.1"
   id="svg5"
   inkscape:version="1.1 (c68e22c387, 2021-05-23)"
   sodipodi:docname="grass_logo.svg"
   inkscape:export-filename="C:\Users\Christoph\AppData\Roaming\QGIS\QGIS3\profiles\default\python\plugins\gruenflaechenotp\ui\grass_logo.png"
   inkscape:export-xdpi="121.64028"
   inkscape:export-ydpi="121.64028"
   xmlns:inkscape="http://www.inkscape.org/namespaces/inkscape"
   xmlns:sodipodi="http://sodipodi.sourceforge.net/DTD/sodipodi-0.dtd"
   xmlns="http://www.w3.org/2000/svg"
   xmlns:svg="http://www.w3.org/2000/svg">
  <sodipodi:namedview
     id="namedview7"
     pagecolor="#ffffff"
     bordercolor="#666666"
     borderopacity="1.0"
     inkscape:pageshadow="2"
     inkscape:pageopacity="0.0"
     inkscape:pagecheckerboard="0"
     inkscape:document-units="mm"
     showgrid="false"
     inkscape:zoom="3.1108586"
     inkscape:cx="71.523662"
     inkscape:cy="351.6714"
     inkscape:window-width="3840"
     inkscape:window-height="2054"
     inkscape:window-x="2869"
     inkscape:window-y="9"
     inkscape:window-maximized="1"
     inkscape:current-layer="layer1" />
  <defs
     id="defs2" />
  <g
     inkscape:label="Ebene 1"
     inkscape:groupmode="layer"
     id="layer1">
    <circle
       style="fill:#ffffff;fill-rule:evenodd;stroke:#000000;stroke-width:4.08665;stroke-miterlimit:4;stroke-dasharray:none;stroke-opacity:1"
       id="path83"
       cx="59.775124"
       cy="105.51875"
       r="23.745005" />
    <path
       style="fill:#000000;fill-opacity:1;stroke:#000000;stroke-width:0.272197px;stroke-linecap:butt;stroke-linejoin:miter;stroke-opacity:1"
       d="m 52.942056,105.71725 c 2.460776,0.78217 1.520875,2.41741 2.432786,3.51084 1.15503,1.38494 2.017907,3.82871 3.821277,3.82977 2.946033,0.002 3.67566,-4.81643 6.249883,-6.24908 2.517119,-1.40087 5.559858,-2.36517 8.413753,-1.97324 1.062589,0.14592 1.985635,0.87637 2.818652,1.552 0.744207,0.6036 1.876438,2.17774 1.876438,2.17774 0,0 -3.619514,-0.68679 -5.365755,-0.28816 -1.77053,0.40417 -3.68831,1.16874 -4.774673,2.62406 -0.47868,0.64125 -0.437423,1.54888 -0.510317,2.34576 -0.08659,0.94661 0.09059,2.85025 0.09059,2.85025 l -15.483146,0.0761 c 0,0 0.500744,-0.47712 0.225863,-2.05983 -0.258842,-1.49036 -0.646856,-1.28806 -1.229491,-2.28164 -0.881386,-1.50303 -3.554864,-2.15929 -5.043312,-2.14355 -2.260866,0.0239 -5.543353,2.39176 -5.543353,2.39176 0,0 2.089279,-4.07747 4.623522,-5.63076 2.511324,-1.09887 5.207699,-1.42799 7.397287,-0.73202 z"
       id="path999"
       sodipodi:nodetypes="saaaaacaaaccsssccss" />
    <path
       style="fill:#000000;fill-opacity:1;stroke:#000000;stroke-width:0.264583px;stroke-linecap:butt;stroke-linejoin:miter;stroke-opacity:1"
       d="m 61.644793,113.59496 c 0,0 -1.291379,-6.79507 0.100681,-9.72153 0.766605,-1.6116 2.460849,-2.75964 4.118439,-3.42095 2.248215,-0.896927 4.887498,-1.024911 7.245743,-0.479351 0.950061,0.219791 2.537687,1.455501 2.537687,1.455501 0,0 -4.370079,0.19427 -6.142578,1.76439 -1.482493,1.3132 -2.402279,3.55217 -3.403832,5.44331 -0.93299,1.76168 -1.791665,8.02824 -2.412706,5.47217 -1.568866,-6.4571 -2.1536,-2.68272 -4.156165,-2.38675 -1.548146,0.22881 -2.170497,2.93052 -2.170497,2.93052 l 1.816733,-0.29185"
       id="path1001"
       sodipodi:nodetypes="caaaccasscc" />
    <path
       style="fill:#000000;fill-opacity:1;stroke:#000000;stroke-width:0.264583px;stroke-linecap:butt;stroke-linejoin:miter;stroke-opacity:1"
       d="m 46.187922,96.308827 c 0,0 3.206015,3.916163 4.390259,6.134343 1.341507,2.51273 2.381653,5.21977 3.007027,7.99869 0.312764,1.3898 -0.720236,3.32422 0.354799,4.25893 1.612858,1.40232 4.981786,1.23665 6.401575,-0.36085 1.81211,-2.03893 0.537879,-5.64613 -0.501762,-8.16806 -1.169399,-2.8367 -3.560173,-5.15717 -6.074191,-6.916167 -2.220608,-1.553701 -7.577707,-2.946886 -7.577707,-2.946886 z"
       id="path5545"
       sodipodi:nodetypes="caaaaaac" />
    <path
       style="fill:#000000;fill-opacity:1;stroke:#000000;stroke-width:0.217274px;stroke-linecap:butt;stroke-linejoin:miter;stroke-opacity:1"
       d="m 63.516168,91.758253 c 0,0 0.620522,4.094025 0.446119,6.134328 -0.241547,2.825819 -1.719027,5.187339 -2.027817,7.998709 -0.237042,2.15814 1.211358,5.01884 0.162225,6.55532 -1.174886,1.72065 -3.858191,1.47897 -4.947871,-0.36085 -1.557274,-2.62931 -0.352231,-7.24192 0.567789,-10.46445 0.80667,-2.82551 2.577956,-4.297929 4.096188,-6.916171 0.568831,-0.980969 1.703367,-2.946886 1.703367,-2.946886 z"
       id="path5545-9"
       sodipodi:nodetypes="caaaaasc" />
  </g>
</svg>
