<?xml version="1.0" encoding="UTF-8" standalone="no"?>
<!-- Created with Inkscape (http://www.inkscape.org/) -->

<svg
   width="210mm"
   height="297mm"
   viewBox="0 0 210 297"
   version="1.1"
   id="svg5"
   inkscape:version="1.1 (c68e22c387, 2021-05-23)"
   sodipodi:docname="grass_logo.svg"
   xmlns:inkscape="http://www.inkscape.org/namespaces/inkscape"
   xmlns:sodipodi="http://sodipodi.sourceforge.net/DTD/sodipodi-0.dtd"
   xmlns="http://www.w3.org/2000/svg"
   xmlns:svg="http://www.w3.org/2000/svg">
  <sodipodi:namedview
     id="namedview7"
     pagecolor="#ffffff"
     bordercolor="#666666"
     borderopacity="1.0"
     inkscape:pageshadow="2"
     inkscape:pageopacity="0.0"
     inkscape:pagecheckerboard="0"
     inkscape:document-units="mm"
     showgrid="false"
     inkscape:zoom="3.1108586"
     inkscape:cx="71.523663"
     inkscape:cy="351.34995"
     inkscape:window-width="3840"
     inkscape:window-height="2054"
     inkscape:window-x="2869"
     inkscape:window-y="-11"
     inkscape:window-maximized="1"
     inkscape:current-layer="layer1" />
  <defs
     id="defs2" />
  <g
     inkscape:label="Ebene 1"
     inkscape:groupmode="layer"
     id="layer1">
    <circle
       style="fill:#ffffff;fill-rule:evenodd;stroke:#000000;stroke-width:4.08665;stroke-miterlimit:4;stroke-dasharray:none;stroke-opacity:1"
       id="path83"
       cx="59.775124"
       cy="105.51875"
       r="23.745005" />
    <path
       style="fill:#000000;fill-opacity:1;stroke:#000000;stroke-width:0.272197px;stroke-linecap:butt;stroke-linejoin:miter;stroke-opacity:1"
       d="m 52.412889,104.65891 c 2.460776,0.78217 1.520875,2.41741 2.432786,3.51084 1.15503,1.38494 2.017907,3.82871 3.821277,3.82977 2.946033,0.002 3.67566,-4.81643 6.249883,-6.24908 2.517119,-1.40087 5.559858,-2.36517 8.413753,-1.97324 1.062589,0.14592 1.985635,0.87637 2.818652,1.552 0.744207,0.6036 1.876438,2.17774 1.876438,2.17774 0,0 -3.619514,-0.68679 -5.365755,-0.28816 -1.77053,0.40417 -3.68831,1.16874 -4.774673,2.62406 -0.47868,0.64125 -0.452893,1.54761 -0.510317,2.34576 -0.117298,1.63035 0.345741,4.89149 0.345741,4.89149 l -15.653249,-0.009 c 0,0 0.415692,-2.43331 0.140811,-4.01602 -0.258842,-1.49036 -0.646856,-1.28806 -1.229491,-2.28164 -0.881386,-1.50303 -3.554864,-2.15929 -5.043312,-2.14355 -2.260866,0.0239 -5.543353,2.39176 -5.543353,2.39176 0,0 2.089279,-4.07747 4.623522,-5.63076 2.511324,-1.09887 5.207699,-1.42799 7.397287,-0.73202 z"
       id="path999"
       sodipodi:nodetypes="saaaaacaaaccsssccss" />
    <path
       style="fill:#000000;fill-opacity:1;stroke:#000000;stroke-width:0.264583px;stroke-linecap:butt;stroke-linejoin:miter;stroke-opacity:1"
       d="m 57.288306,115.93868 c 0,0 1.409414,-9.3147 3.928001,-13.12359 0.984339,-1.48863 2.460849,-2.75964 4.118439,-3.420941 2.248215,-0.89693 4.887498,-1.024914 7.245743,-0.479354 0.950061,0.219789 2.537687,1.455495 2.537687,1.455495 0,0 -4.370079,0.19427 -6.142578,1.76439 -1.482493,1.3132 -2.502458,3.50242 -3.403832,5.44331 -1.107955,2.38571 -0.558138,5.64801 -2.412706,7.51341 -1.280225,1.28771 -3.486265,2.35853 -5.176784,1.69572 -0.680638,-0.26686 -0.397412,-2.21581 -1.064826,-1.91742 -0.344314,0.15394 0.370856,1.06898 0.370856,1.06898"
       id="path1001"
       sodipodi:nodetypes="caaaccaaaac" />
    <path
       style="fill:#000000;fill-opacity:1;stroke:#000000;stroke-width:0.264583px;stroke-linecap:butt;stroke-linejoin:miter;stroke-opacity:1"
       d="m 45.658755,95.250493 c 0,0 3.206015,3.916163 4.390259,6.134337 1.341507,2.51273 2.549126,5.18732 3.007027,7.99869 0.351506,2.15814 -1.796309,5.01884 -0.240562,6.55532 1.742225,1.72065 5.721268,1.47897 7.337142,-0.36085 2.309264,-2.62931 0.52232,-7.24192 -0.841968,-10.46445 -1.196202,-2.8255 -3.560173,-5.15717 -6.074191,-6.916161 -2.220608,-1.553701 -7.577707,-2.946886 -7.577707,-2.946886 z"
       id="path5545"
       sodipodi:nodetypes="caaaaaac" />
    <path
       style="fill:#000000;fill-opacity:1;stroke:#000000;stroke-width:0.217274px;stroke-linecap:butt;stroke-linejoin:miter;stroke-opacity:1"
       d="m 62.987001,90.699919 c 0,0 0.620522,4.094025 0.446119,6.134328 -0.241547,2.825812 -1.719027,5.187333 -2.027817,7.998703 -0.237042,2.15814 1.211358,5.01884 0.162225,6.55532 -1.174886,1.72065 -3.858191,1.47897 -4.947871,-0.36085 -1.557274,-2.62931 -0.352231,-7.24192 0.567789,-10.46445 0.80667,-2.825504 2.577956,-4.297923 4.096188,-6.916165 0.568831,-0.980969 1.703367,-2.946886 1.703367,-2.946886 z"
       id="path5545-9"
       sodipodi:nodetypes="caaaaasc" />
  </g>
</svg>
